<?xml version="1.0" encoding="UTF-8" standalone="no"?>
<!-- Created with Inkscape (http://www.inkscape.org/) -->

<svg
   xmlns:dc="http://purl.org/dc/elements/1.1/"
   xmlns:cc="http://creativecommons.org/ns#"
   xmlns:rdf="http://www.w3.org/1999/02/22-rdf-syntax-ns#"
   xmlns:svg="http://www.w3.org/2000/svg"
   xmlns="http://www.w3.org/2000/svg"
   xmlns:sodipodi="http://sodipodi.sourceforge.net/DTD/sodipodi-0.dtd"
   xmlns:inkscape="http://www.inkscape.org/namespaces/inkscape"
   width="500"
   height="500"
   viewBox="0 0 132.29166 132.29167"
   version="1.1"
   id="svg8"
   inkscape:version="0.92.3 (2405546, 2018-03-11)"
   sodipodi:docname="Renvmn ANOTHER.svg"
   inkscape:export-filename="C:\Users\Norshafiq Kuzaimie\Desktop\Renvmn Another.png"
   inkscape:export-xdpi="278.39999"
   inkscape:export-ydpi="278.39999">
  <sodipodi:namedview
     id="base"
     pagecolor="#ffffff"
     bordercolor="#666666"
     borderopacity="1.0"
     inkscape:pageopacity="0.0"
     inkscape:pageshadow="2"
     inkscape:zoom="1"
     inkscape:cx="423.62476"
     inkscape:cy="207.53944"
     inkscape:document-units="mm"
     inkscape:current-layer="layer1"
     showgrid="false"
     units="px"
     inkscape:window-width="1920"
     inkscape:window-height="1057"
     inkscape:window-x="-8"
     inkscape:window-y="-8"
     inkscape:window-maximized="1"
     inkscape:snap-grids="true"
     inkscape:snap-bbox="true"
     inkscape:bbox-paths="false"
     inkscape:bbox-nodes="false"
     showguides="false"
     inkscape:guide-bbox="true"
     inkscape:snap-bbox-midpoints="true"
     inkscape:snap-bbox-edge-midpoints="true"
     inkscape:snap-page="true"
     inkscape:snap-global="true"
     inkscape:object-paths="true"
     inkscape:snap-intersection-paths="false"
     inkscape:snap-smooth-nodes="true"
     inkscape:object-nodes="false"
     inkscape:lockguides="false">
    <sodipodi:guide
       id="guide11187"
       position="0.0,0"
       orientation="132.2917,0"
       inkscape:locked="false" />
    <sodipodi:guide
       id="guide11189"
       position="66.1458,0"
       orientation="132.2917,0"
       inkscape:locked="false" />
    <sodipodi:guide
       id="guide11191"
       position="132.2917,0"
       orientation="132.2917,0"
       inkscape:locked="false" />
    <sodipodi:guide
       id="guide11193"
       position="0,0.0"
       orientation="0,132.2917"
       inkscape:locked="false" />
    <sodipodi:guide
       id="guide11195"
       position="0,66.1458"
       orientation="0,132.2917"
       inkscape:locked="false" />
    <sodipodi:guide
       id="guide11197"
       position="0,132.2917"
       orientation="0,132.2917"
       inkscape:locked="false" />
  </sodipodi:namedview>
  <defs
     id="defs2" />
  <metadata
     id="metadata5">
    <rdf:RDF>
      <cc:Work
         rdf:about="">
        <dc:format>image/svg+xml</dc:format>
        <dc:type
           rdf:resource="http://purl.org/dc/dcmitype/StillImage" />
        <dc:title />
      </cc:Work>
    </rdf:RDF>
  </metadata>
  <g
     inkscape:label="Layer 1"
     inkscape:groupmode="layer"
     id="layer1"
     transform="translate(0,-164.70832)">
    <rect
       y="164.7083"
       x="-1.780192e-005"
       height="132.2917"
       width="132.2917"
       id="rect10659"
       style="opacity:1;fill:#312b2b;fill-opacity:1;fill-rule:evenodd;stroke:none;stroke-width:0.52916664;stroke-linecap:square;stroke-linejoin:miter;stroke-miterlimit:4;stroke-dasharray:none;stroke-dashoffset:0;stroke-opacity:1;paint-order:markers fill stroke"
       inkscape:label="BG" />
    <path
       inkscape:connector-curvature="0"
       id="path10783"
       d="m 65.880733,164.70884 v 30.12068 H 66.4099 v -30.12068 z"
       style="color:#000000;font-style:normal;font-variant:normal;font-weight:normal;font-stretch:normal;font-size:medium;line-height:normal;font-family:sans-serif;font-variant-ligatures:normal;font-variant-position:normal;font-variant-caps:normal;font-variant-numeric:normal;font-variant-alternates:normal;font-feature-settings:normal;text-indent:0;text-align:start;text-decoration:none;text-decoration-line:none;text-decoration-style:solid;text-decoration-color:#000000;letter-spacing:normal;word-spacing:normal;text-transform:none;writing-mode:lr-tb;direction:ltr;text-orientation:mixed;dominant-baseline:auto;baseline-shift:baseline;text-anchor:start;white-space:normal;shape-padding:0;clip-rule:nonzero;display:inline;overflow:visible;visibility:visible;opacity:1;isolation:auto;mix-blend-mode:normal;color-interpolation:sRGB;color-interpolation-filters:linearRGB;solid-color:#000000;solid-opacity:1;vector-effect:none;fill:#8a6e59;fill-opacity:1;fill-rule:nonzero;stroke:none;stroke-width:0.35780296;stroke-linecap:butt;stroke-linejoin:miter;stroke-miterlimit:4;stroke-dasharray:none;stroke-dashoffset:0;stroke-opacity:1;color-rendering:auto;image-rendering:auto;shape-rendering:auto;text-rendering:auto;enable-background:accumulate"
       inkscape:label="Earth Line" />
    <path
       style="color:#000000;font-style:normal;font-variant:normal;font-weight:normal;font-stretch:normal;font-size:medium;line-height:normal;font-family:sans-serif;font-variant-ligatures:normal;font-variant-position:normal;font-variant-caps:normal;font-variant-numeric:normal;font-variant-alternates:normal;font-feature-settings:normal;text-indent:0;text-align:start;text-decoration:none;text-decoration-line:none;text-decoration-style:solid;text-decoration-color:#000000;letter-spacing:normal;word-spacing:normal;text-transform:none;writing-mode:lr-tb;direction:ltr;text-orientation:mixed;dominant-baseline:auto;baseline-shift:baseline;text-anchor:start;white-space:normal;shape-padding:0;clip-rule:nonzero;display:inline;overflow:visible;visibility:visible;opacity:1;isolation:auto;mix-blend-mode:normal;color-interpolation:sRGB;color-interpolation-filters:linearRGB;solid-color:#000000;solid-opacity:1;vector-effect:none;fill:#959595;fill-opacity:1;fill-rule:nonzero;stroke:none;stroke-width:0.27387762;stroke-linecap:butt;stroke-linejoin:miter;stroke-miterlimit:4;stroke-dasharray:none;stroke-dashoffset:0;stroke-opacity:1;color-rendering:auto;image-rendering:auto;shape-rendering:auto;text-rendering:auto;enable-background:accumulate"
       d="m 17.647378,231.11899 v -0.52916 H -2.5755467e-4 v 0.52916 z"
       id="path11183"
       inkscape:connector-curvature="0"
       inkscape:label="Air Line" />
    <g
       id="g9642"
       inkscape:label="Air">
      <circle
         id="circle10779"
         r="10"
         cy="263.92709"
         cx="33.072899"
         style="opacity:1;fill:none;fill-opacity:1;fill-rule:evenodd;stroke:#fef1e1;stroke-width:0.5291667;stroke-linecap:square;stroke-linejoin:miter;stroke-miterlimit:4;stroke-dasharray:none;stroke-dashoffset:0;stroke-opacity:1;paint-order:markers fill stroke"
         inkscape:label="Air Circle" />
      <path
         sodipodi:type="spiral"
         style="fill:none;fill-rule:evenodd;stroke:#fef1e1;stroke-width:0.39687499;stroke-linecap:round;stroke-linejoin:round;stroke-miterlimit:4;stroke-dasharray:none;stroke-opacity:1"
         id="path10787"
         sodipodi:cx="33.072899"
         sodipodi:cy="263.92709"
         sodipodi:expansion="1"
         sodipodi:revolution="2.0154624"
         sodipodi:radius="10.020138"
         sodipodi:argument="-19.373156"
         sodipodi:t0="0"
         d="m 33.072899,263.92709 c 0.647621,-0.3739 0.82353,0.68851 0.621455,1.07639 -0.547612,1.05113 -2.027287,0.84722 -2.774234,0.16652 -1.336113,-1.21761 -0.959766,-3.34896 0.288414,-4.47207 1.831754,-1.64822 4.690452,-1.08084 6.169922,0.74334 1.971902,2.43136 1.205854,6.03922 -1.198282,7.86777 -3.02536,2.30105 -7.391502,1.33297 -9.565611,-1.65322 -2.633138,-3.61667 -1.461322,-8.74579 2.108151,-11.26345 4.2065,-2.96698 10.101327,-1.59045 12.9613,2.56308 0.183899,0.26708 0.35468,0.54318 0.511632,0.82693"
         inkscape:label="Air Flow" />
    </g>
    <g
       id="g9638"
       inkscape:label="Water">
      <circle
         style="opacity:1;fill:none;fill-opacity:1;fill-rule:evenodd;stroke:#058fd0;stroke-width:0.5291667;stroke-linecap:square;stroke-linejoin:miter;stroke-miterlimit:4;stroke-dasharray:none;stroke-dashoffset:0;stroke-opacity:1;paint-order:markers fill stroke"
         cx="99.218704"
         cy="263.92709"
         r="10"
         id="circle10777"
         inkscape:label="Water Circle" />
      <path
         style="color:#000000;font-style:normal;font-variant:normal;font-weight:normal;font-stretch:normal;font-size:medium;line-height:normal;font-family:sans-serif;font-variant-ligatures:normal;font-variant-position:normal;font-variant-caps:normal;font-variant-numeric:normal;font-variant-alternates:normal;font-feature-settings:normal;text-indent:0;text-align:start;text-decoration:none;text-decoration-line:none;text-decoration-style:solid;text-decoration-color:#000000;letter-spacing:normal;word-spacing:normal;text-transform:none;writing-mode:lr-tb;direction:ltr;text-orientation:mixed;dominant-baseline:auto;baseline-shift:baseline;text-anchor:start;white-space:normal;shape-padding:0;clip-rule:nonzero;display:inline;overflow:visible;visibility:visible;opacity:1;isolation:auto;mix-blend-mode:normal;color-interpolation:sRGB;color-interpolation-filters:linearRGB;solid-color:#000000;solid-opacity:1;vector-effect:none;fill:#058fd0;fill-opacity:1;fill-rule:evenodd;stroke:#058fd0;stroke-width:0.99999994;stroke-linecap:butt;stroke-linejoin:miter;stroke-miterlimit:4;stroke-dasharray:none;stroke-dashoffset:0;stroke-opacity:1;color-rendering:auto;image-rendering:auto;shape-rendering:auto;text-rendering:auto;enable-background:accumulate"
         d="m 356.08789,370.75781 c -6.50266,-0.034 -13.00363,1.19138 -19.08203,3.7793 l 0.39844,0.92383 c 11.89335,-5.0637 25.46635,-4.80261 37.41211,0.006 12.17757,4.90159 26.02092,5.17016 38.17773,-0.006 l -0.39844,-0.92383 c -11.89338,5.06366 -25.46632,4.80831 -37.41211,0 -6.08877,-2.4508 -12.59304,-3.74596 -19.0957,-3.7793 z"
         transform="matrix(0.26458333,0,0,0.26458333,0,164.70832)"
         id="path10865"
         inkscape:connector-curvature="0"
         inkscape:label="Water Flow 2" />
      <path
         inkscape:connector-curvature="0"
         id="path10879"
         d="m 94.836978,267.82071 c -1.506611,-0.008 -3.012829,0.27603 -4.421141,0.87563 l 0.09231,0.21404 c 2.755586,-1.17321 5.900332,-1.11272 8.66806,0.002 2.821433,1.13565 6.028813,1.19787 8.845433,-0.002 l -0.0923,-0.21404 c -2.75558,1.17321 -5.90031,1.11404 -8.668051,0 -1.410714,-0.56783 -2.917698,-0.8679 -4.424306,-0.87563 z"
         style="color:#000000;font-style:normal;font-variant:normal;font-weight:normal;font-stretch:normal;font-size:medium;line-height:normal;font-family:sans-serif;font-variant-ligatures:normal;font-variant-position:normal;font-variant-caps:normal;font-variant-numeric:normal;font-variant-alternates:normal;font-feature-settings:normal;text-indent:0;text-align:start;text-decoration:none;text-decoration-line:none;text-decoration-style:solid;text-decoration-color:#000000;letter-spacing:normal;word-spacing:normal;text-transform:none;writing-mode:lr-tb;direction:ltr;text-orientation:mixed;dominant-baseline:auto;baseline-shift:baseline;text-anchor:start;white-space:normal;shape-padding:0;clip-rule:nonzero;display:inline;overflow:visible;visibility:visible;opacity:1;isolation:auto;mix-blend-mode:normal;color-interpolation:sRGB;color-interpolation-filters:linearRGB;solid-color:#000000;solid-opacity:1;vector-effect:none;fill:#058fd0;fill-opacity:1;fill-rule:evenodd;stroke:#058fd0;stroke-width:0.23169127;stroke-linecap:butt;stroke-linejoin:miter;stroke-miterlimit:4;stroke-dasharray:none;stroke-dashoffset:0;stroke-opacity:1;color-rendering:auto;image-rendering:auto;shape-rendering:auto;text-rendering:auto;enable-background:accumulate"
         inkscape:label="Water Flow 3" />
      <path
         style="color:#000000;font-style:normal;font-variant:normal;font-weight:normal;font-stretch:normal;font-size:medium;line-height:normal;font-family:sans-serif;font-variant-ligatures:normal;font-variant-position:normal;font-variant-caps:normal;font-variant-numeric:normal;font-variant-alternates:normal;font-feature-settings:normal;text-indent:0;text-align:start;text-decoration:none;text-decoration-line:none;text-decoration-style:solid;text-decoration-color:#000000;letter-spacing:normal;word-spacing:normal;text-transform:none;writing-mode:lr-tb;direction:ltr;text-orientation:mixed;dominant-baseline:auto;baseline-shift:baseline;text-anchor:start;white-space:normal;shape-padding:0;clip-rule:nonzero;display:inline;overflow:visible;visibility:visible;opacity:1;isolation:auto;mix-blend-mode:normal;color-interpolation:sRGB;color-interpolation-filters:linearRGB;solid-color:#000000;solid-opacity:1;vector-effect:none;fill:#058fd0;fill-opacity:1;fill-rule:evenodd;stroke:#058fd0;stroke-width:0.23169127;stroke-linecap:butt;stroke-linejoin:miter;stroke-miterlimit:4;stroke-dasharray:none;stroke-dashoffset:0;stroke-opacity:1;color-rendering:auto;image-rendering:auto;shape-rendering:auto;text-rendering:auto;enable-background:accumulate"
         d="m 94.836978,258.20903 c -1.506611,-0.008 -3.012829,0.27603 -4.421141,0.87563 l 0.09231,0.21404 c 2.755586,-1.17321 5.900332,-1.11272 8.66806,0.002 2.821433,1.13565 6.028813,1.19787 8.845433,-0.002 l -0.0923,-0.21404 c -2.75558,1.17321 -5.90031,1.11404 -8.668051,0 -1.410714,-0.56783 -2.917698,-0.8679 -4.424306,-0.87563 z"
         id="path10881"
         inkscape:connector-curvature="0"
         inkscape:label="Water Flow 1" />
    </g>
    <g
       id="g9646"
       inkscape:label="Earth">
      <circle
         style="opacity:1;fill:none;fill-opacity:1;fill-rule:evenodd;stroke:#8a6e59;stroke-width:0.52899998;stroke-linecap:square;stroke-linejoin:miter;stroke-miterlimit:4;stroke-dasharray:none;stroke-dashoffset:0;stroke-opacity:1;paint-order:markers fill stroke"
         cx="33.072899"
         cy="197.78128"
         r="10"
         id="path10773"
         inkscape:label="Earth Circle" />
      <path
         sodipodi:type="star"
         style="opacity:1;fill:none;fill-opacity:1;fill-rule:evenodd;stroke:#8a6e59;stroke-width:0.36853558;stroke-linecap:square;stroke-linejoin:miter;stroke-miterlimit:4;stroke-dasharray:none;stroke-dashoffset:0;stroke-opacity:1;paint-order:markers fill stroke"
         id="path11132"
         sodipodi:sides="8"
         sodipodi:cx="33.072899"
         sodipodi:cy="197.78128"
         sodipodi:r1="4.80055"
         sodipodi:r2="4.5110412"
         sodipodi:arg1="0.78539816"
         sodipodi:arg2="1.1780972"
         inkscape:flatsided="true"
         inkscape:rounded="0"
         inkscape:randomized="0"
         d="m 36.4674,201.17578 -3.394501,1.40605 -3.394502,-1.40605 -1.406048,-3.3945 1.406048,-3.3945 3.394502,-1.40605 3.394501,1.40605 1.406049,3.3945 z"
         inkscape:transform-center-x="-0.072654387"
         inkscape:transform-center-y="0.072647154"
         inkscape:label="Earth Symbol" />
    </g>
    <g
       transform="matrix(1.0204728,0,0,1.0204728,-1.3870442,-6.1237497)"
       id="text10330"
       style="font-style:normal;font-variant:normal;font-weight:normal;font-stretch:normal;font-size:16.48374176px;line-height:1.25;font-family:Montserrat;-inkscape-font-specification:Montserrat;letter-spacing:0px;word-spacing:0px;fill:#ffffff;fill-opacity:1;stroke:none;stroke-width:0.61814028"
       aria-label="Renvmn"
       inkscape:label="Renvmn">
      <path
         inkscape:connector-curvature="0"
         id="path10542"
         style="font-style:normal;font-variant:normal;font-weight:normal;font-stretch:normal;font-family:'Cinzel Decorative';-inkscape-font-specification:'Cinzel Decorative';fill:#ffffff;stroke-width:0.61814028"
         d="m 44.067923,239.45176 q -0.692317,0.18132 -1.236281,0.18132 -0.52748,0 -0.939573,-0.0659 -0.412094,-0.0659 -0.890122,-0.26374 -0.461545,-0.18132 -0.873638,-0.42857 -0.412094,-0.24726 -0.824188,-0.6099 -0.758252,-0.6099 -1.384634,-1.3187 -0.609898,-0.7088 -2.373659,-2.65388 -1.76376,-1.96157 -2.340691,-2.60444 -0.576931,-0.64286 -0.890122,-0.67583 v -0.16484 q 0.956057,0 1.269248,-0.033 0.329675,-0.0495 0.692317,-0.14836 0.362643,-0.11538 0.609899,-0.2967 0.97254,-0.62639 0.97254,-2.07696 0,-1.20331 -0.543963,-1.92859 -0.52748,-0.72529 -1.500021,-0.74177 h -2.043983 v 9.82431 q 0,0.41209 0.296707,0.72528 0.313191,0.31319 0.758252,0.31319 h 0.197805 l 0.01648,0.16484 h -3.60994 v -0.16484 h 0.214289 q 0.412093,0 0.725284,-0.2967 0.313192,-0.29671 0.329675,-0.72529 v -9.14848 q -0.01648,-0.42857 -0.329675,-0.72528 -0.296707,-0.31319 -0.725284,-0.31319 H 29.43036 v -0.16484 h 4.45061 q 1.45057,0 2.324208,0.82419 0.890122,0.8077 0.890122,2.15937 0,1.33518 -0.807703,2.30772 -0.807704,0.95606 -1.978049,0.95606 0,0 -0.01648,0 0.560447,0.59341 1.269248,1.38463 2.851687,3.1484 3.659391,3.9561 0.807703,0.80771 1.417602,1.3187 0.626382,0.52748 1.10441,0.77474 0.972541,0.52748 1.928598,0.52748 0.197805,0 0.39561,-0.033 z"
         inkscape:label="R" />
      <path
         inkscape:connector-curvature="0"
         id="path10544"
         style="font-style:normal;font-variant:normal;font-weight:normal;font-stretch:normal;font-family:'Cinzel Decorative';-inkscape-font-specification:'Cinzel Decorative';fill:#ffffff;stroke-width:0.61814028"
         d="m 40.397715,236.48468 q 0.428577,0 0.725285,-0.2967 0.313191,-0.31319 0.329674,-0.74177 v -9.2309 q 0,-0.39561 -0.313191,-0.65935 -0.313191,-0.28022 -0.741768,-0.28022 H 40.19991 l -0.01648,-0.16484 h 4.829737 q 0.510996,0 1.10441,-0.0989 0.609899,-0.0989 0.857155,-0.19781 v 2.07696 H 46.80989 v -0.29671 q 0,-0.39561 -0.280223,-0.67584 -0.26374,-0.28022 -0.642866,-0.2967 h -3.362683 v 5.09347 h 2.785752 q 0.329675,-0.0165 0.560447,-0.24725 0.230773,-0.23077 0.230773,-0.57693 v -0.23078 h 0.164837 v 2.60444 H 46.10109 v -0.24726 q 0,-0.32968 -0.230773,-0.56045 -0.214288,-0.23077 -0.543963,-0.24725 h -2.802236 v 4.92863 h 2.357175 q 1.219797,0 1.862662,-0.54396 0.642866,-0.54396 1.071444,-1.61541 h 0.164837 l -0.956057,2.67037 h -6.840753 v -0.16484 z"
         inkscape:label="E" />
      <path
         inkscape:connector-curvature="0"
         id="path10546"
         style="font-style:normal;font-variant:normal;font-weight:normal;font-stretch:normal;font-family:'Cinzel Decorative';-inkscape-font-specification:'Cinzel Decorative';fill:#ffffff;stroke-width:0.61814028"
         d="m 61.516221,225.27574 q -0.412094,0 -0.708801,0.29671 -0.296707,0.28022 -0.313191,0.69231 v 8.50561 q 0,0.95606 0.115386,1.81322 l 0.03297,0.2967 h -0.148354 l -8.983639,-9.59353 v 8.2089 q 0,0.41209 0.296707,0.7088 0.296707,0.28022 0.708801,0.28022 h 0.313191 v 0.16484 H 49.43364 v -0.16484 h 0.313191 q 0.412094,0 0.708801,-0.28022 0.296707,-0.29671 0.296707,-0.72528 v -8.55507 q 0,-1.00551 -0.115386,-1.79672 l -0.03297,-0.26374 h 0.164837 l 8.983639,9.59353 v -8.17593 q -0.01648,-0.42858 -0.313191,-0.7088 -0.296707,-0.29671 -0.708801,-0.29671 h -0.313191 v -0.16484 h 3.395651 v 0.16484 z"
         inkscape:label="N" />
      <path
         inkscape:connector-curvature="0"
         id="path10548"
         style="font-style:normal;font-variant:normal;font-weight:normal;font-stretch:normal;font-family:'Cinzel Decorative';-inkscape-font-specification:'Cinzel Decorative';fill:#ffffff;stroke-width:0.61814028"
         d="m 71.633889,225.1109 h 3.313232 v 0.16484 h -0.148354 q -0.412093,0 -0.807703,0.26374 -0.39561,0.24726 -0.626382,0.75825 l -3.972582,8.88474 q -0.609898,1.33518 -0.609898,1.69782 h -0.148354 l -4.631931,-10.56608 q -0.230773,-0.52747 -0.642866,-0.77473 -0.39561,-0.26374 -0.807704,-0.26374 h -0.13187 v -0.16484 h 3.708842 v 0.16484 h -0.148353 q -0.346159,0 -0.52748,0.23077 -0.164838,0.21429 -0.164838,0.41209 0,0.18133 0.08242,0.37913 l 3.445102,8.63748 3.593456,-8.63748 q 0.06593,-0.1978 0.06593,-0.37913 0,-0.1978 -0.181321,-0.41209 -0.164838,-0.23077 -0.510996,-0.23077 h -0.148354 z"
         inkscape:label="V" />
      <path
         inkscape:connector-curvature="0"
         id="path10550"
         style="font-style:normal;font-variant:normal;font-weight:normal;font-stretch:normal;font-family:'Cinzel Decorative';-inkscape-font-specification:'Cinzel Decorative';fill:#ffffff;stroke-width:0.61814028"
         d="m 89.283081,236.48468 h 0.26374 v 0.16484 h -3.576972 v -0.14835 h 0.247256 q 0.280224,0 0.478029,-0.21429 0.197805,-0.21429 0.164837,-0.49451 l -0.741768,-8.29133 -3.461586,7.69791 q -0.461545,1.00551 -0.560447,1.68134 h -0.164837 l -4.219838,-9.14847 -0.708801,8.06055 q -0.03297,0.26374 0.164837,0.49451 0.197805,0.21429 0.478029,0.21429 h 0.247256 v 0.14835 H 74.69497 v -0.16484 h 0.26374 q 0.461545,0 0.791219,-0.28022 0.346159,-0.28022 0.412094,-0.75825 l 1.236281,-10.56608 h 0.164837 l 4.598964,9.9397 4.500061,-9.9397 h 0.148354 l 1.269248,10.56608 q 0.06593,0.47803 0.412094,0.75825 0.346158,0.28022 0.791219,0.28022 z"
         inkscape:label="M" />
      <path
         inkscape:connector-curvature="0"
         id="path10552"
         style="font-style:normal;font-variant:normal;font-weight:normal;font-stretch:normal;font-family:'Cinzel Decorative';-inkscape-font-specification:'Cinzel Decorative';fill:#ffffff;stroke-width:0.61814028"
         d="m 102.62899,225.27574 q -0.41209,0 -0.7088,0.29671 -0.29671,0.28022 -0.31319,0.69231 v 8.50561 q 0,0.95606 0.11539,1.81322 l 0.033,0.2967 H 101.607 l -8.98364,-9.59353 v 8.2089 q 0,0.41209 0.296707,0.7088 0.296707,0.28022 0.708801,0.28022 h 0.313191 v 0.16484 h -3.395651 v -0.16484 h 0.313191 q 0.412094,0 0.708801,-0.28022 0.296708,-0.29671 0.296708,-0.72528 v -8.55507 q 0,-1.00551 -0.115387,-1.79672 l -0.03297,-0.26374 h 0.164837 l 8.983642,9.59353 v -8.17593 q -0.0165,-0.42858 -0.31319,-0.7088 -0.29671,-0.29671 -0.708804,-0.29671 h -0.313192 v -0.16484 h 3.395656 v 0.16484 z"
         inkscape:label="N" />
    </g>
    <path
       style="color:#000000;font-style:normal;font-variant:normal;font-weight:normal;font-stretch:normal;font-size:medium;line-height:normal;font-family:sans-serif;font-variant-ligatures:normal;font-variant-position:normal;font-variant-caps:normal;font-variant-numeric:normal;font-variant-alternates:normal;font-feature-settings:normal;text-indent:0;text-align:start;text-decoration:none;text-decoration-line:none;text-decoration-style:solid;text-decoration-color:#000000;letter-spacing:normal;word-spacing:normal;text-transform:none;writing-mode:lr-tb;direction:ltr;text-orientation:mixed;dominant-baseline:auto;baseline-shift:baseline;text-anchor:start;white-space:normal;shape-padding:0;clip-rule:nonzero;display:inline;overflow:visible;visibility:visible;opacity:1;isolation:auto;mix-blend-mode:normal;color-interpolation:sRGB;color-interpolation-filters:linearRGB;solid-color:#000000;solid-opacity:1;vector-effect:none;fill:#ed174b;fill-opacity:1;fill-rule:nonzero;stroke:none;stroke-width:0.27505791;stroke-linecap:butt;stroke-linejoin:miter;stroke-miterlimit:4;stroke-dasharray:none;stroke-dashoffset:0;stroke-opacity:1;color-rendering:auto;image-rendering:auto;shape-rendering:auto;text-rendering:auto;enable-background:accumulate"
       d="m 132.29089,230.58983 h -17.8002 v 0.52916 h 17.8002 z"
       id="path11185"
       inkscape:connector-curvature="0"
       inkscape:label="Fire Line" />
    <path
       inkscape:connector-curvature="0"
       id="path11181"
       d="m 66.4099,266.82182 h -0.529167 v 30.17817 H 66.4099 Z"
       style="color:#000000;font-style:normal;font-variant:normal;font-weight:normal;font-stretch:normal;font-size:medium;line-height:normal;font-family:sans-serif;font-variant-ligatures:normal;font-variant-position:normal;font-variant-caps:normal;font-variant-numeric:normal;font-variant-alternates:normal;font-feature-settings:normal;text-indent:0;text-align:start;text-decoration:none;text-decoration-line:none;text-decoration-style:solid;text-decoration-color:#000000;letter-spacing:normal;word-spacing:normal;text-transform:none;writing-mode:lr-tb;direction:ltr;text-orientation:mixed;dominant-baseline:auto;baseline-shift:baseline;text-anchor:start;white-space:normal;shape-padding:0;clip-rule:nonzero;display:inline;overflow:visible;visibility:visible;opacity:1;isolation:auto;mix-blend-mode:normal;color-interpolation:sRGB;color-interpolation-filters:linearRGB;solid-color:#000000;solid-opacity:1;vector-effect:none;fill:#215068;fill-opacity:1;fill-rule:nonzero;stroke:none;stroke-width:0.35814571;stroke-linecap:butt;stroke-linejoin:miter;stroke-miterlimit:4;stroke-dasharray:none;stroke-dashoffset:0;stroke-opacity:1;color-rendering:auto;image-rendering:auto;shape-rendering:auto;text-rendering:auto;enable-background:accumulate"
       inkscape:label="Water Line" />
    <g
       id="g9650"
       inkscape:label="Fire">
      <circle
         id="circle10775"
         r="10"
         cy="197.78128"
         cx="99.218704"
         style="opacity:1;fill:none;fill-opacity:1;fill-rule:evenodd;stroke:#ed174b;stroke-width:0.5291667;stroke-linecap:square;stroke-linejoin:miter;stroke-miterlimit:4;stroke-dasharray:none;stroke-dashoffset:0;stroke-opacity:1;paint-order:markers fill stroke"
         inkscape:label="Fire Circle" />
      <path
         sodipodi:nodetypes="ccccccccccsc"
         inkscape:connector-curvature="0"
         id="path11584"
         d="m 95.727087,199.12782 c -0.118984,-0.85274 -0.200234,-1.72577 -0.08739,-2.58307 0.02477,-0.33035 0.325715,-0.96527 0.61419,-0.43956 0.41785,0.52266 0.425752,1.26922 0.901313,1.75567 0.349104,0.54644 0.920521,1.0237 1.58786,1.07732 0.485242,0.0292 0.797406,-0.43692 0.848259,-0.87021 0.258926,-1.15704 0.180405,-2.4144 -0.331764,-3.49177 -0.274099,-0.54108 -0.649555,-1.03439 -0.834156,-1.61803 1.220969,-0.011 2.251851,0.81768 2.978981,1.7263 1.25511,1.53097 1.81295,3.70242 1.19104,5.61295 -0.20223,0.55219 -0.71955,2.29539 -3.376714,2.30702 -3.216172,0.0141 -3.322006,-2.35361 -3.491616,-3.47662 z"
         style="fill:none;stroke:#ed174b;stroke-width:0.35355809;stroke-linecap:butt;stroke-linejoin:miter;stroke-miterlimit:4;stroke-dasharray:none;stroke-opacity:1"
         inkscape:label="Fire Symbol" />
    </g>
  </g>
</svg>
